<?xml version="1.0" encoding="utf-8"?>
<!-- Generator: Adobe Illustrator 26.3.1, SVG Export Plug-In . SVG Version: 6.00 Build 0)  -->
<svg version="1.1" id="Слой_1" xmlns="http://www.w3.org/2000/svg" xmlns:xlink="http://www.w3.org/1999/xlink" x="0px" y="0px"
	 viewBox="0 0 500 500" style="enable-background:new 0 0 500 500;" xml:space="preserve">
<path d="M383.7,248.4c-0.6-0.8-60.7-79.3-133.8-79.3c-73.2,0-133.2,78.5-133.8,79.3l-0.9,1.2l0.9,1.2c0.6,0.8,60.6,79.3,133.8,79.3
	c73.2,0,133.2-78.5,133.8-79.3l0.9-1.2L383.7,248.4z M255.6,194c-0.9-3.3-3.9-5.8-7.4-5.8c-4.3,0-7.7,3.5-7.7,7.7s3.5,7.7,7.7,7.7
	c3.6,0,6.6-2.5,7.4-5.8h14.7l22,28.5h30.6c2.1,6.7,3.3,13.9,3.5,21.2h-48.6c-1-14.5-13.1-25.9-27.8-25.9
	c-14.7,0-26.8,11.5-27.8,25.9h-48.6c0.2-7.7,1.5-15.1,3.8-22h27.1c0.9,3.3,3.9,5.8,7.4,5.8c4.3,0,7.7-3.5,7.7-7.7
	c0-4.3-3.5-7.7-7.7-7.7c-3.6,0-6.6,2.5-7.4,5.8h-25.7c11.2-28.4,38.8-48.6,71.2-48.6c32.6,0,60.5,20.6,71.5,49.4h-27.2l-22-28.5
	H255.6z M251.9,195.9c0,2.1-1.7,3.8-3.8,3.8s-3.8-1.7-3.8-3.8s1.7-3.8,3.8-3.8S251.9,193.8,251.9,195.9z M322.5,273.5h-29.7
	L260,306.3c-1.3-0.9-2.8-1.4-4.4-1.4c-4.3,0-7.7,3.5-7.7,7.7c0,4.3,3.5,7.7,7.7,7.7c4.3,0,7.7-3.5,7.7-7.7c0-1.2-0.3-2.3-0.8-3.3
	l31.8-31.8H321c-11.2,28.4-38.8,48.6-71.2,48.6c-32.3,0-60-20.2-71.2-48.6h26.6l18.3,18.3c-0.4,0.9-0.6,1.9-0.6,3
	c0,4.3,3.5,7.7,7.7,7.7c4.3,0,7.7-3.5,7.7-7.7s-3.5-7.7-7.7-7.7c-1.8,0-3.4,0.6-4.7,1.6l-19.1-19.1h-29.7c-2.3-7-3.6-14.3-3.8-22
	H222c1,14.5,13.1,25.9,27.8,25.9c14.7,0,26.8-11.5,27.8-25.9h48.6C326.1,259.2,324.8,266.6,322.5,273.5z M259.4,312.6
	c0,2.1-1.7,3.8-3.8,3.8s-3.8-1.7-3.8-3.8c0-2.1,1.7-3.8,3.8-3.8S259.4,310.5,259.4,312.6z M230.7,295c2.1,0,3.8,1.7,3.8,3.8
	c0,2.1-1.7,3.8-3.8,3.8s-3.8-1.7-3.8-3.8C226.9,296.7,228.6,295,230.7,295z M225.9,249.6c0-13.2,10.8-24,24-24c13.2,0,24,10.8,24,24
	s-10.8,24-24,24C236.6,273.5,225.9,262.8,225.9,249.6z M208,223.6c0-2.1,1.7-3.8,3.8-3.8s3.8,1.7,3.8,3.8c0,2.1-1.7,3.8-3.8,3.8
	S208,225.7,208,223.6z M120.1,249.6c6-7.5,40.1-48.5,85.6-67.2c-21.9,14.4-36.3,39.1-36.3,67.2c0,28.1,14.5,52.8,36.3,67.2
	C160.2,298,126.1,257.1,120.1,249.6z M294,316.8c21.8-14.4,36.3-39.1,36.3-67.2c0-28.1-14.5-52.8-36.3-67.2
	c45.5,18.7,79.6,59.7,85.6,67.2C373.6,257.1,339.5,298,294,316.8z"/>
</svg>
