<?xml version="1.0" encoding="utf-8"?>
<!-- Svg Vector Icons : http://www.onlinewebfonts.com/icon -->
<!DOCTYPE svg PUBLIC "-//W3C//DTD SVG 1.1//EN" "http://www.w3.org/Graphics/SVG/1.1/DTD/svg11.dtd">
<svg version="1.1" xmlns="http://www.w3.org/2000/svg" xmlns:xlink="http://www.w3.org/1999/xlink" x="0px" y="0px" viewBox="0 0 256 256" enable-background="new 0 0 256 256" xml:space="preserve">
<metadata> Svg Vector Icons : http://www.onlinewebfonts.com/icon </metadata>
<g><g><path fill="#000000" d="M241.5,93.6c-12.6-20.6-25.2-41.3-37.9-61.8c-7.3-11.9-8.2-11.9-17-0.8c-12,15-19.4,16.8-36.3,7.8c-10.2-5.4-19.8-11.8-30-17.3c-13.1-7-26.5-12.9-43.2-13C65.1,7.3,55.3,14.3,46.3,23c-2.9,2.8-2.8,5.7-1.1,9.3c15,31.9,29.8,63.8,44.5,95.8c2.2,4.7,5.6,6.4,9.8,4.9c7.5-2.6,14.9-5.9,22.2-9.2c17.9-8.1,35.4-9.9,52.1,3.1c5.8,4.5,12.1,8.5,18.4,12.2c8.2,4.9,17.1,5.6,24.7-0.6c8.3-6.8,16.2-14.5,23.2-22.7C247.9,106.7,247.6,103.6,241.5,93.6z"/><path fill="#000000" d="M28.4,25.4c-3.3-7.1-6.1-8.1-12.4-5.2c-6.7,3.1-7.5,5.6-4.1,13.2c16,36,92.7,208.6,92.7,208.6s4.7,8.8,14.2,4.8c9.7-4.1,4.8-13.8,4.8-13.8S48.2,68.1,28.4,25.4z"/></g></g>
</svg>